<svg width="76" height="54" viewBox="0 0 76 54" fill="none" xmlns="http://www.w3.org/2000/svg">
<rect width="76" height="54" fill="#65BABF"/>
<path d="M43.1949 3.42151C41.3906 3.45139 40.0949 3.74026 39.2352 4.25823L27.4527 9.44788L20.9016 16.7781C19.5211 18.5313 20.502 21.918 24.8129 19.7465L29.5356 14.6266C35.5297 10.3742 47.7602 12.3256 41.9598 20.8621C39.1141 25.8027 40.4461 28.2133 44.1152 29.2293L45.7863 24.6074C48.6805 19.2484 54.0813 18.2822 53.8633 13.9592L66.8445 14.7262L66.7235 3.56096L43.1949 3.42151ZM36.6438 13.7201C34.5367 13.6902 32.466 14.4074 30.9645 15.4434L26.2297 20.5633C27.5254 21.41 28.8332 20.9518 30.1289 19.9258C31.6547 20.5633 32.8414 19.5772 33.8102 17.6049C34.2098 16.2602 34.8031 15.3139 36.6438 13.7201ZM27.0047 23.2826C26.9563 23.2826 26.8957 23.2826 26.8473 23.2926C26.4477 23.3623 25.9754 23.7109 25.6606 24.5078C25.3336 25.3047 25.261 26.4402 25.5516 27.6555C25.8422 28.8607 26.4477 29.8867 27.1258 30.5242C27.7797 31.1518 28.3852 31.3311 28.7848 31.2613C29.1965 31.2016 29.6567 30.843 29.9715 30.0561C30.2985 29.2592 30.3832 28.1137 30.0926 26.9084C29.7899 25.6932 29.1844 24.6672 28.5184 24.0397C27.9371 23.4818 27.4043 23.2826 27.0047 23.2826ZM37.007 33.9209C36.0504 33.9309 34.8516 34.1799 33.677 34.6481C32.3328 35.1959 31.2793 35.9529 30.7102 36.6502C30.141 37.3375 30.0926 37.8555 30.2742 38.1643C30.4559 38.4631 30.9887 38.752 32.0059 38.7918C33.0231 38.8416 34.3914 38.6125 35.7356 38.0647C37.0797 37.5168 38.1332 36.7697 38.7024 36.0725C39.2715 35.3852 39.3199 34.8572 39.1383 34.5584C38.9567 34.2496 38.4238 33.9707 37.4067 33.9309C37.2735 33.9209 37.1524 33.9209 37.007 33.9209ZM25.1883 43.4436C24.6192 43.4535 24.0985 43.5232 23.6383 43.6328C22.609 43.8818 22.0156 44.3301 21.8219 44.858C21.616 45.3959 21.8219 46.0334 22.5121 46.7207C23.2145 47.3981 24.3891 48.0455 25.8422 48.4041C27.2832 48.7627 28.6879 48.7527 29.7293 48.4938C30.7707 48.2447 31.3641 47.7965 31.5578 47.2686C31.7516 46.7307 31.5578 46.0932 30.8555 45.4059C30.1652 44.7285 28.9906 44.0811 27.5375 43.7225C26.7141 43.5232 25.9149 43.4336 25.1883 43.4436Z" fill="#F5F5F5"/>
</svg>
