<svg width="76" height="54" viewBox="0 0 76 54" fill="none" xmlns="http://www.w3.org/2000/svg">
<rect width="76" height="54" fill="#65BABF"/>
<path d="M58.5 27.7812V34.1875H19.5V13.6875H35.75V11.125H19.5C18.638 11.125 17.8114 11.395 17.2019 11.8755C16.5924 12.3561 16.25 13.0079 16.25 13.6875V34.1875C16.25 34.8671 16.5924 35.5189 17.2019 35.9995C17.8114 36.48 18.638 36.75 19.5 36.75H32.5V41.875H26V44.4375H52V41.875H45.5V36.75H58.5C59.362 36.75 60.1886 36.48 60.7981 35.9995C61.4076 35.5189 61.75 34.8671 61.75 34.1875V27.7812H58.5ZM42.25 41.875H35.75V36.75H42.25V41.875Z" fill="white"/>
<path d="M61.75 18.8125V16.25H58.3359C58.1263 15.448 57.7224 14.6853 57.1464 14.004L59.5676 12.0949L57.2699 10.2832L54.8486 12.1923C53.9844 11.7381 53.0172 11.4196 52 11.2544V8.5625H48.75V11.2544C47.7328 11.4196 46.7656 11.7381 45.9014 12.1923L43.4801 10.2832L41.1824 12.0949L43.6036 14.004C43.0276 14.6853 42.6237 15.448 42.4141 16.25H39V18.8125H42.4141C42.6237 19.6145 43.0276 20.3772 43.6036 21.0585L41.1824 22.9676L43.4801 24.7793L45.9014 22.8702C46.7656 23.3244 47.7328 23.6429 48.75 23.8081V26.5H52V23.8081C53.0172 23.6429 53.9844 23.3244 54.8486 22.8702L57.2699 24.7793L59.5676 22.9676L57.1464 21.0585C57.7224 20.3772 58.1263 19.6145 58.3359 18.8125H61.75ZM50.375 21.375C49.4108 21.375 48.4683 21.1496 47.6666 20.7272C46.8649 20.3049 46.2401 19.7045 45.8711 19.0022C45.5021 18.2998 45.4056 17.527 45.5937 16.7814C45.7818 16.0358 46.2461 15.3509 46.9279 14.8133C47.6096 14.2758 48.4783 13.9097 49.4239 13.7614C50.3696 13.613 51.3498 13.6892 52.2406 13.9801C53.1314 14.271 53.8927 14.7637 54.4284 15.3958C54.9641 16.0279 55.25 16.771 55.25 17.5312C55.2487 18.5504 54.7347 19.5274 53.8207 20.2481C52.9068 20.9687 51.6675 21.374 50.375 21.375Z" fill="white"/>
</svg>
