<svg width="76" height="54" viewBox="0 0 76 54" fill="none" xmlns="http://www.w3.org/2000/svg">
<rect width="76" height="54" fill="#65BABF"/>
<g clip-path="url(#clip0_1001_2)">
<path d="M45.125 11.375C45.125 9.94946 44.427 8.58231 43.1846 7.5743C41.9422 6.56629 40.2571 6 38.5 6C36.7429 6 35.0578 6.56629 33.8154 7.5743C32.573 8.58231 31.875 9.94946 31.875 11.375C31.875 12.8005 32.573 14.1677 33.8154 15.1757C35.0578 16.1837 36.7429 16.75 38.5 16.75C40.2571 16.75 41.9422 16.1837 43.1846 15.1757C44.427 14.1677 45.125 12.8005 45.125 11.375ZM35.1875 19.4375C31.5334 19.4375 28.5625 21.8479 28.5625 24.8125V28.8438C28.5625 30.3303 30.0428 31.5312 31.875 31.5312H32.0613L33.2104 39.8877C33.3967 41.2482 34.8148 42.2812 36.5021 42.2812H40.5082C42.1955 42.2812 43.6137 41.2482 43.8 39.8877L44.9387 31.5312H45.125C46.9572 31.5312 48.4375 30.3303 48.4375 28.8438V24.8125C48.4375 21.8479 45.4666 19.4375 41.8125 19.4375H35.1875ZM25.6951 39.1066C27.0408 38.9051 27.9414 37.8553 27.693 36.7635C27.4445 35.6717 26.1506 34.941 24.8049 35.1426C21.451 35.6381 18.5008 36.3352 16.3166 37.2254C15.2297 37.6705 14.2152 38.208 13.4389 38.8715C12.6625 39.5518 12 40.4756 12 41.6094C12 43.4066 13.6045 44.6412 15.0123 45.3887C16.534 46.1949 18.5629 46.8416 20.8506 47.3539C25.4777 48.3869 31.7094 49 38.5 49C45.2906 49 51.5223 48.3869 56.1391 47.3539C58.4268 46.8416 60.466 46.1949 61.9773 45.3887C63.3955 44.6412 64.9896 43.4066 64.9896 41.6094C64.9896 40.4756 64.3271 39.5518 63.5404 38.8715C62.7641 38.208 61.7496 37.6705 60.6627 37.2254C58.4889 36.3352 55.5387 35.6381 52.1744 35.1426C50.8287 34.941 49.5348 35.6717 49.2863 36.7635C49.0379 37.8553 49.9385 38.9051 51.2842 39.1066C54.4104 39.5686 56.843 40.1816 58.4268 40.8283C58.758 40.9627 59.0271 41.0887 59.2445 41.2062C59.6172 41.4078 59.6172 41.8109 59.2445 42.0125C58.3336 42.4912 56.8533 43.0035 54.7934 43.4654C50.7459 44.3809 44.9697 44.9688 38.5 44.9688C32.0303 44.9688 26.2541 44.3809 22.1756 43.4654C20.1156 43.0035 18.6354 42.4912 17.7244 42.0125C17.3518 41.8109 17.3518 41.4078 17.7244 41.2062C17.9418 41.0887 18.2213 40.9627 18.5422 40.8283C20.126 40.1816 22.5586 39.577 25.6848 39.1066H25.6951Z" fill="white"/>
</g>
<defs>
<clipPath id="clip0_1001_2">
<rect width="53" height="43" fill="white" transform="translate(12 6)"/>
</clipPath>
</defs>
</svg>
