<svg width="100" height="100" viewBox="0 0 100 100" fill="none" xmlns="http://www.w3.org/2000/svg">
<circle cx="50" cy="50" r="50" fill="#65BABF"/>
<path d="M52.6433 32.6433C53.2684 32.0184 54.1161 31.6674 55 31.6674C55.8839 31.6674 56.7316 32.0184 57.3567 32.6433L72.3567 47.6433C72.9816 48.2684 73.3326 49.1161 73.3326 50C73.3326 50.8839 72.9816 51.7316 72.3567 52.3567L57.3567 67.3567C56.728 67.9639 55.886 68.2999 55.012 68.2923C54.138 68.2847 53.302 67.9341 52.6839 67.3161C52.0659 66.698 51.7153 65.862 51.7077 64.988C51.7001 64.114 52.0361 63.272 52.6433 62.6433L61.6667 53.3333H30C29.1159 53.3333 28.2681 52.9822 27.643 52.357C27.0178 51.7319 26.6667 50.8841 26.6667 50C26.6667 49.116 27.0178 48.2681 27.643 47.643C28.2681 47.0179 29.1159 46.6667 30 46.6667H61.6667L52.6433 37.3567C52.0184 36.7316 51.6674 35.8839 51.6674 35C51.6674 34.1161 52.0184 33.2684 52.6433 32.6433Z" fill="white"/>
</svg>
