<svg width="24" height="24" viewBox="0 0 24 24" fill="none" xmlns="http://www.w3.org/2000/svg">
<path d="M2.25 9C2.25 3.75 7.5 3.75 12 3.75C16.5 3.75 21.75 3.75 21.75 9C21.75 15 16.5 8.25 16.5 8.25H7.5C7.5 8.25 2.25 15 2.25 9ZM8.25 10.5C8.25 10.5 4.5 14.25 4.5 21H19.5C19.5 14.25 15.75 10.5 15.75 10.5H8.25Z" stroke="white" stroke-width="2" stroke-linecap="round" stroke-linejoin="round"/>
<path d="M12 18.75C13.6569 18.75 15 17.4069 15 15.75C15 14.0931 13.6569 12.75 12 12.75C10.3431 12.75 9 14.0931 9 15.75C9 17.4069 10.3431 18.75 12 18.75Z" stroke="white" stroke-width="2" stroke-linecap="round" stroke-linejoin="round"/>
</svg>
